<svg width="80" height="80" viewBox="0 0 80 80" fill="none" xmlns="http://www.w3.org/2000/svg">
<g clip-path="url(#clip0_1144_211)">
<path fill-rule="evenodd" clip-rule="evenodd" d="M17.7772 6.74121C24.3552 2.34596 32.0888 0 40 0C50.6038 0.0157913 60.7688 4.23514 68.2668 11.7332C75.7649 19.2312 79.9842 29.3962 80 40C80 47.9112 77.654 55.6448 73.2588 62.2228C68.8635 68.8008 62.6164 73.9277 55.3073 76.9552C47.9983 79.9827 39.9556 80.7748 32.1964 79.2314C24.4372 77.688 17.3098 73.8784 11.7157 68.2843C6.12164 62.6902 2.31202 55.5628 0.768607 47.8036C-0.774802 40.0444 0.0173304 32.0017 3.04484 24.6927C6.07234 17.3836 11.1992 11.1365 17.7772 6.74121ZM20.8571 68.6713C26.5236 72.457 33.1853 74.4776 40 74.4776V74.4597C49.1393 74.4597 57.9042 70.8291 64.3667 64.3667C70.8291 57.9042 74.4597 49.1393 74.4597 40C74.4562 33.1853 72.4321 26.5246 68.6435 20.8601C64.8549 15.1956 59.4718 10.7816 53.1748 8.17616C46.8778 5.57073 39.9496 4.89087 33.2663 6.22253C26.5829 7.55418 20.4445 10.8376 15.627 15.6575C10.8095 20.4775 7.52933 26.6177 6.20114 33.3017C4.87296 39.9858 5.55642 46.9135 8.16512 53.2092C10.7738 59.5048 15.1906 64.8856 20.8571 68.6713ZM44.9373 36.0956H58.1433V36.1254C58.1433 36.1254 62.9671 36.3881 63.0149 40.9373C63.0627 45.4866 58.1433 45.3732 58.1433 45.3732H44.9373V57.7254C44.9373 57.7254 44.806 62.3105 39.9343 62.2866C35.0627 62.2627 35.0627 57.7254 35.0627 57.7254V45.3732H21.8567C21.8567 45.3732 16.9612 45.2179 16.9851 40.6567C17.0089 36.0956 21.8567 36.0956 21.8567 36.0956H35.0627V23.7433C35.1577 22.4637 35.7477 21.2715 36.7075 20.4199C37.6672 19.5682 38.9211 19.1242 40.203 19.1821C45.0627 19.1344 44.9373 23.7433 44.9373 23.7433V36.0956Z" fill="#231F20"/>
</g>
<defs>
<clipPath id="clip0_1144_211">
<rect width="80" height="80" fill="white"/>
</clipPath>
</defs>
</svg>
