<svg width="80" height="80" viewBox="0 0 80 80" fill="none" xmlns="http://www.w3.org/2000/svg">
<g clip-path="url(#clip0_1144_178)">
<path fill-rule="evenodd" clip-rule="evenodd" d="M17.7772 6.74121C24.3552 2.34596 32.0888 0 40 0C50.6038 0.0157913 60.7688 4.23514 68.2668 11.7332C75.7649 19.2312 79.9842 29.3962 80 40C80 47.9112 77.654 55.6448 73.2588 62.2228C68.8635 68.8008 62.6164 73.9277 55.3073 76.9552C47.9983 79.9827 39.9556 80.7748 32.1964 79.2314C24.4372 77.688 17.3098 73.8784 11.7157 68.2843C6.12164 62.6902 2.31202 55.5628 0.768607 47.8036C-0.774802 40.0444 0.0173304 32.0017 3.04484 24.6927C6.07234 17.3836 11.1992 11.1365 17.7772 6.74121ZM20.8571 68.6713C26.5236 72.457 33.1853 74.4776 40 74.4776V74.4597C49.1393 74.4597 57.9042 70.8291 64.3667 64.3667C70.8291 57.9042 74.4597 49.1393 74.4597 40C74.4562 33.1853 72.4321 26.5246 68.6435 20.8601C64.8549 15.1956 59.4718 10.7816 53.1748 8.17616C46.8778 5.57073 39.9496 4.89087 33.2663 6.22253C26.5829 7.55418 20.4445 10.8376 15.627 15.6575C10.8095 20.4775 7.52933 26.6177 6.20114 33.3017C4.87296 39.9858 5.55642 46.9135 8.16512 53.2092C10.7738 59.5048 15.1906 64.8856 20.8571 68.6713ZM21.2717 50.7881C19.8326 52.2088 19.0111 54.1392 18.9851 56.1613C19.0202 58.1925 19.8406 60.1312 21.2744 61.5705C22.7081 63.0097 24.6436 63.8377 26.6747 63.8807C28.7126 63.8577 30.658 63.0267 32.0836 61.5702L59.0329 34.6269C59.998 33.6669 60.7645 32.5262 61.2888 31.2699C61.8131 30.0136 62.0848 28.6664 62.0884 27.3051C62.092 25.9438 61.8274 24.5952 61.3098 23.3361C60.7922 22.0771 60.0317 20.9324 59.0717 19.9672C58.1116 19.0021 56.9709 18.2355 55.7146 17.7113C54.4584 17.187 53.1111 16.9153 51.7499 16.9117C49.0006 16.9044 46.3611 17.9896 44.412 19.9284L23.6299 40.7105C21.8985 42.4419 24.4597 44.9374 26.1911 43.206L47.0209 22.5613C48.2653 21.3279 49.9465 20.6359 51.6985 20.6359C53.4506 20.6359 55.1317 21.3279 56.3761 22.5613C57.0013 23.1694 57.4983 23.8966 57.8376 24.7C58.1769 25.5034 58.3517 26.3667 58.3517 27.2389C58.3517 28.111 58.1769 28.9743 57.8376 29.7777C57.4983 30.5811 57.0013 31.3084 56.3761 31.9165L29.3552 58.9314C29.0018 59.3015 28.577 59.596 28.1066 59.7973C27.6361 59.9985 27.1297 60.1023 26.6179 60.1023C26.1062 60.1023 25.5998 59.9985 25.1293 59.7973C24.6588 59.596 24.234 59.3015 23.8806 58.9314C23.5109 58.571 23.2171 58.1402 23.0165 57.6644C22.8158 57.1887 22.7125 56.6776 22.7125 56.1613C22.7125 55.6449 22.8158 55.1338 23.0165 54.6581C23.2171 54.1823 23.5109 53.7515 23.8806 53.3911L44.7582 32.609C44.9024 32.4603 45.075 32.342 45.2657 32.2612C45.4565 32.1804 45.6615 32.1388 45.8687 32.1388C46.0758 32.1388 46.2809 32.1804 46.4716 32.2612C46.6624 32.342 46.835 32.4603 46.9791 32.609C47.2482 32.9152 47.3966 33.3089 47.3966 33.7165C47.3966 34.1241 47.2482 34.5178 46.9791 34.8239L36.0299 45.3553C34.5791 46.812 36.7941 49.0986 38.3164 47.6419L49.4746 36.7941C51.403 34.8538 51.6896 32.012 49.612 29.9344C48.5933 28.966 47.2414 28.4259 45.8358 28.4259C44.4303 28.4259 43.0784 28.966 42.0597 29.9344L21.2717 50.7881Z" fill="#231F20"/>
</g>
<defs>
<clipPath id="clip0_1144_178">
<rect width="80" height="80" fill="white"/>
</clipPath>
</defs>
</svg>
