<svg width="80" height="80" viewBox="0 0 80 80" fill="none" xmlns="http://www.w3.org/2000/svg">
<path d="M39.9941 0C32.0831 0.001172 24.3501 2.34813 17.7729 6.74409C11.1957 11.1401 6.06973 17.3876 3.04314 24.6968C0.0165405 32.0059 -0.774749 40.0484 0.769329 47.8072C2.31341 55.5661 6.12351 62.6928 11.7178 68.2864C17.3122 73.8799 24.4395 77.6889 32.1986 79.2318C39.9577 80.7748 48 79.9823 55.3087 76.9546C62.6174 73.9269 68.8642 68.8 73.2592 62.2222C77.6542 55.6443 80 47.911 80 40C79.9984 29.3908 75.7828 19.2166 68.2804 11.7154C60.778 4.21408 50.6033 -1.1639e-07 39.9941 0ZM39.9941 64.6222C38.6506 64.6207 37.3617 64.09 36.4067 63.145C35.4517 62.2 34.9074 60.9168 34.8919 59.5733H45.0963C45.0823 60.9173 44.5385 62.2014 43.5832 63.1467C42.6278 64.0921 41.3381 64.6223 39.9941 64.6222ZM62.7911 54.9689C62.6985 55.5718 62.3771 56.1158 61.8937 56.4877C61.4102 56.8596 60.802 57.0309 60.1956 56.9659H19.8459C18.2459 56.9659 17.3867 56.3022 17.0904 54.72C16.7684 53.1538 16.9488 51.5259 17.6059 50.0681C17.9706 49.4483 18.4018 48.87 18.8919 48.3437C18.9234 48.3039 18.9615 48.2699 19.0045 48.243C21.9674 46.4652 23.1526 43.5022 23.7808 40.3141C24.1245 38.5363 24.2785 36.6815 24.5985 34.88C25.0726 32.2193 25.517 29.5467 26.6311 27.0518C27.4063 25.2725 28.5603 23.6837 30.0126 22.3962C31.4649 21.1087 33.1806 20.1534 35.04 19.597L35.5556 19.4311C35.5944 19.408 35.6286 19.3779 35.6563 19.3422C35.3536 18.6941 35.2003 17.9862 35.2079 17.2709C35.2154 16.5555 35.3835 15.851 35.6998 15.2094C36.016 14.5677 36.4724 14.0053 37.0352 13.5637C37.5979 13.122 38.2527 12.8125 38.9511 12.6578C39.0575 12.6296 39.1623 12.596 39.2652 12.557H40.6519C40.7061 12.5906 40.7637 12.6184 40.8237 12.64C41.5229 12.7681 42.1843 13.0518 42.759 13.4701C43.3337 13.8883 43.807 14.4305 44.1439 15.0564C44.4807 15.6823 44.6725 16.376 44.7051 17.0861C44.7376 17.7961 44.6101 18.5044 44.3319 19.1585C44.3319 19.2296 44.2845 19.3067 44.2489 19.4015C44.8415 19.6207 45.4341 19.7985 46.0267 20.0415C50.4296 21.8963 53.0548 25.2504 54.2341 29.8252C54.9736 32.7473 55.5082 35.7175 55.8341 38.7141C56.0711 40.5653 56.5534 42.3767 57.2682 44.1007C57.7838 45.3994 58.6494 46.5297 59.7689 47.3659L60.2785 47.763C61.3755 48.5703 62.2025 49.6906 62.651 50.9767C63.0994 52.2628 63.1483 53.6545 62.7911 54.9689ZM41.5645 17.3156C41.5597 17.6294 41.4622 17.9347 41.284 18.1931C41.1059 18.4515 40.8552 18.6514 40.5636 18.7674C40.272 18.8834 39.9526 18.9104 39.6456 18.8451C39.3387 18.7797 39.058 18.6248 38.839 18.4C38.6199 18.1752 38.4724 17.8906 38.4151 17.582C38.3577 17.2735 38.3931 16.9548 38.5167 16.6663C38.6403 16.3779 38.8465 16.1325 39.1095 15.9611C39.3724 15.7898 39.6803 15.7002 39.9941 15.7037C40.2047 15.706 40.4127 15.7501 40.6061 15.8336C40.7995 15.917 40.9743 16.0381 41.1204 16.1897C41.2666 16.3414 41.3811 16.5206 41.4573 16.7169C41.5336 16.9133 41.57 17.1228 41.5645 17.3333V17.3156Z" fill="#231F20"/>
</svg>
