<svg width="80" height="80" viewBox="0 0 80 80" fill="none" xmlns="http://www.w3.org/2000/svg">
<g clip-path="url(#clip0_1144_161)">
<path fill-rule="evenodd" clip-rule="evenodd" d="M17.7772 6.74121C24.3552 2.34596 32.0888 0 40 0C50.6038 0.0157913 60.7688 4.23514 68.2668 11.7332C75.7649 19.2312 79.9842 29.3962 80 40C80 47.9112 77.654 55.6448 73.2588 62.2228C68.8635 68.8008 62.6164 73.9277 55.3073 76.9552C47.9983 79.9827 39.9556 80.7748 32.1964 79.2314C24.4372 77.688 17.3098 73.8784 11.7157 68.2843C6.12164 62.6902 2.31202 55.5628 0.768607 47.8036C-0.774802 40.0444 0.0173304 32.0017 3.04484 24.6927C6.07234 17.3836 11.1992 11.1365 17.7772 6.74121ZM20.8571 68.6713C26.5236 72.457 33.1853 74.4776 40 74.4776V74.4597C49.1393 74.4597 57.9042 70.8291 64.3667 64.3667C70.8291 57.9042 74.4597 49.1393 74.4597 40C74.4562 33.1853 72.4321 26.5246 68.6435 20.8601C64.8549 15.1956 59.4718 10.7816 53.1748 8.17616C46.8778 5.57073 39.9496 4.89087 33.2663 6.22253C26.5829 7.55418 20.4445 10.8376 15.627 15.6575C10.8095 20.4775 7.52933 26.6177 6.20114 33.3017C4.87296 39.9858 5.55642 46.9135 8.16512 53.2092C10.7738 59.5048 15.1906 64.8856 20.8571 68.6713ZM50.2926 17.1202C53.6316 17.1202 56.8346 18.4434 59.2 20.8V20.7701C61.5595 23.1341 62.8847 26.3376 62.8847 29.6776C62.8847 33.0176 61.5595 36.2211 59.2 38.5851L53.015 44.7761L51.3135 46.4776C51.1848 46.6124 51.045 46.7363 50.8956 46.8477C50.1361 47.5684 49.2826 48.1829 48.3583 48.6746C45.9944 49.9417 43.2897 50.4266 40.6329 50.0597C39.9702 49.9771 39.3167 49.8332 38.6806 49.6298C38.09 49.453 37.5165 49.2232 36.9672 48.9433C35.6764 48.3422 34.5021 47.5176 33.4986 46.5074C32.4785 45.496 31.6493 44.3089 31.0508 43.003C30.9908 42.8762 30.9718 42.734 30.9964 42.596C31.021 42.4579 31.088 42.331 31.1881 42.2328L34.2508 39.1701C34.4913 38.9222 34.7621 38.7056 35.0568 38.5254C35.1499 38.4656 35.2563 38.4295 35.3665 38.4201C35.4768 38.4108 35.5877 38.4285 35.6896 38.4716C35.7908 38.5143 35.8803 38.5804 35.9509 38.6645C36.0215 38.7485 36.0711 38.8482 36.0956 38.9552C36.3544 40.1717 36.9599 41.2872 37.8389 42.1671C38.461 42.7943 39.2071 43.2848 40.0294 43.6076C40.8518 43.9304 41.7323 44.0782 42.615 44.0418C43.1627 44.0314 43.7066 43.9491 44.2329 43.797C45.276 43.4932 46.2263 42.9328 46.9971 42.1671L54.8597 34.3045C55.7638 33.4019 56.3797 32.2513 56.6293 30.9984C56.8789 29.7455 56.7511 28.4467 56.262 27.2666C55.7729 26.0864 54.9446 25.0779 53.8819 24.3689C52.8193 23.6598 51.5701 23.2821 50.2926 23.2836C48.6013 23.2849 46.9791 23.9544 45.7792 25.1463L42.4538 28.4657C42.3664 28.5531 42.2571 28.6154 42.1373 28.6458C42.0175 28.6763 41.8917 28.6739 41.7732 28.6388C39.8394 28.0588 37.8049 27.894 35.803 28.1552C35.661 28.1747 35.5163 28.1489 35.3898 28.0813C35.2633 28.0138 35.1614 27.908 35.0986 27.7791C35.0356 27.6508 35.0139 27.5063 35.0363 27.3652C35.0588 27.2241 35.1243 27.0934 35.2239 26.991L41.3851 20.8C43.7506 18.4434 46.9536 17.1202 50.2926 17.1202ZM38.2627 51.3194C40.1956 51.9034 42.2301 52.0722 44.2329 51.8149V51.8447C44.3748 51.827 44.5187 51.8537 44.6448 51.921C44.7709 51.9884 44.8731 52.0931 44.9374 52.2209C44.9987 52.3499 45.019 52.4946 44.9955 52.6355C44.972 52.7764 44.9059 52.9068 44.806 53.0089L38.615 59.2C36.2526 61.5624 33.0485 62.8896 29.7075 62.8896C26.3666 62.8896 23.1625 61.5624 20.8 59.2C18.4376 56.8376 17.1105 53.6335 17.1105 50.2925C17.1105 46.9516 18.4376 43.7475 20.8 41.3851L28.6926 33.5045C28.8208 33.3673 28.9606 33.2414 29.1105 33.1283C29.8694 32.4195 30.7209 31.817 31.6418 31.3373C33.9885 30.0836 36.6732 29.609 39.3075 29.9821C39.9751 30.052 40.6335 30.1921 41.2717 30.4C41.8622 30.5773 42.4356 30.807 42.9851 31.0865C44.2944 31.6775 45.4858 32.5007 46.5015 33.5164C47.5192 34.5288 48.3499 35.7132 48.9553 37.0149C49.0008 37.1462 49.0058 37.2881 48.9696 37.4223C48.9334 37.5564 48.8577 37.6766 48.7523 37.7671L45.6896 40.8298C45.4453 41.0777 45.1728 41.2961 44.8777 41.4806C44.783 41.537 44.6762 41.5702 44.5663 41.5774C44.4563 41.5847 44.3461 41.5658 44.2448 41.5224C44.1435 41.4792 44.0542 41.4121 43.9845 41.3269C43.9149 41.2416 43.8669 41.1407 43.8448 41.0328C43.5864 39.8196 42.9807 38.7078 42.1015 37.8328C41.2297 36.9494 40.1166 36.343 38.9015 36.0895C38.391 35.9854 37.8701 35.9413 37.3493 35.9582C36.8053 35.9705 36.2652 36.0548 35.7433 36.2089C34.6955 36.5026 33.7413 37.0619 32.9732 37.8328L25.1105 45.6955C23.9297 46.913 23.2751 48.5461 23.288 50.2422C23.301 51.9383 23.9805 53.5612 25.1798 54.7605C26.3792 55.9598 28.0021 56.6393 29.6981 56.6523C31.3942 56.6653 33.0273 56.0107 34.2448 54.8298L37.5821 51.4925C37.6695 51.4051 37.7788 51.3428 37.8986 51.3123C38.0184 51.2819 38.1442 51.2843 38.2627 51.3194Z" fill="#231F20"/>
</g>
<defs>
<clipPath id="clip0_1144_161">
<rect width="80" height="80" fill="white"/>
</clipPath>
</defs>
</svg>
