<svg width="512" height="512" viewBox="0 0 512 512" fill="none" xmlns="http://www.w3.org/2000/svg">
<path d="M380.982 273.314L186.638 467.657C177.265 477.03 162.069 477.03 152.697 467.657L130.03 444.99C120.673 435.633 120.655 420.468 129.99 411.089L284.011 256.343L129.99 101.598C120.655 92.2188 120.673 77.0537 130.03 67.6968L152.697 45.0297C162.07 35.6567 177.266 35.6567 186.638 45.0297L380.981 239.373C390.354 248.745 390.354 263.941 380.982 273.314Z" fill="black"/>
<mask id="mask0_0_860" style="mask-type:alpha" maskUnits="userSpaceOnUse" x="123" y="38" width="266" height="437">
<path d="M380.982 273.314L186.638 467.657C177.265 477.03 162.069 477.03 152.697 467.657L130.03 444.99C120.673 435.633 120.655 420.468 129.99 411.089L284.011 256.343L129.99 101.598C120.655 92.2188 120.673 77.0537 130.03 67.6968L152.697 45.0297C162.07 35.6567 177.266 35.6567 186.638 45.0297L380.981 239.373C390.354 248.745 390.354 263.941 380.982 273.314Z" fill="white"/>
</mask>
<g mask="url(#mask0_0_860)">
<path fill-rule="evenodd" clip-rule="evenodd" d="M0 0H512V512H0V0Z" fill="#212529"/>
</g>
</svg>
