<svg width="512" height="512" viewBox="0 0 512 512" fill="none" xmlns="http://www.w3.org/2000/svg">
<path d="M130.028 239.367L324.378 45.0275C333.747 35.6575 348.948 35.6575 358.318 45.0275L380.987 67.6975C390.347 77.0575 390.357 92.2175 381.027 101.597L226.997 256.337L381.017 411.087C390.357 420.467 390.337 435.628 380.978 444.987L358.307 467.658C348.938 477.027 333.737 477.027 324.367 467.658L130.028 273.307C120.658 263.938 120.658 248.737 130.028 239.367Z" fill="black"/>
<mask id="mask0_0_859" style="mask-type:alpha" maskUnits="userSpaceOnUse" x="123" y="38" width="266" height="437">
<path d="M130.028 239.367L324.378 45.0275C333.747 35.6575 348.948 35.6575 358.318 45.0275L380.987 67.6975C390.347 77.0575 390.357 92.2175 381.027 101.597L226.997 256.337L381.017 411.087C390.357 420.467 390.337 435.628 380.978 444.987L358.307 467.658C348.938 477.027 333.737 477.027 324.367 467.658L130.028 273.307C120.658 263.938 120.658 248.737 130.028 239.367Z" fill="white"/>
</mask>
<g mask="url(#mask0_0_859)">
<path fill-rule="evenodd" clip-rule="evenodd" d="M0 0H512V512H0V0Z" fill="#212529"/>
</g>
</svg>
