<svg width="512" height="512" viewBox="0 0 512 512" fill="none" xmlns="http://www.w3.org/2000/svg">
<path d="M239.373 380.982L45.0297 186.638C35.6567 177.265 35.6567 162.069 45.0297 152.697L67.6968 130.03C77.0537 120.673 92.2188 120.655 101.598 129.99L256.344 284.011L411.089 129.99C420.468 120.655 435.633 120.673 444.99 130.03L467.657 152.697C477.03 162.07 477.03 177.266 467.657 186.638L273.315 380.982C263.942 390.354 248.746 390.354 239.373 380.982Z" fill="black"/>
<mask id="mask0_0_858" style="mask-type:alpha" maskUnits="userSpaceOnUse" x="38" y="123" width="437" height="266">
<path d="M239.373 380.982L45.0297 186.638C35.6567 177.265 35.6567 162.069 45.0297 152.697L67.6968 130.03C77.0537 120.673 92.2188 120.655 101.598 129.99L256.344 284.011L411.089 129.99C420.468 120.655 435.633 120.673 444.99 130.03L467.657 152.697C477.03 162.07 477.03 177.266 467.657 186.638L273.315 380.982C263.942 390.354 248.746 390.354 239.373 380.982Z" fill="white"/>
</mask>
<g mask="url(#mask0_0_858)">
<path fill-rule="evenodd" clip-rule="evenodd" d="M0 0H512V512H0V0Z" fill="#212529"/>
</g>
</svg>
