<svg width="512" height="512" viewBox="0 0 512 512" fill="none" xmlns="http://www.w3.org/2000/svg">
<path d="M273.314 130.029L467.657 324.372C477.03 333.745 477.03 348.941 467.657 358.313L444.99 380.98C435.633 390.337 420.468 390.355 411.089 381.02L256.343 227L101.598 381.021C92.2188 390.356 77.0537 390.338 67.6968 380.981L45.0297 358.314C35.6567 348.941 35.6567 333.745 45.0297 324.373L239.373 130.03C248.745 120.657 263.941 120.657 273.314 130.029Z" fill="black"/>
<mask id="mask0_0_861" style="mask-type:alpha" maskUnits="userSpaceOnUse" x="38" y="123" width="437" height="266">
<path d="M273.314 130.029L467.657 324.372C477.03 333.745 477.03 348.941 467.657 358.313L444.99 380.98C435.633 390.337 420.468 390.355 411.089 381.02L256.343 227L101.598 381.021C92.2188 390.356 77.0537 390.338 67.6968 380.981L45.0297 358.314C35.6567 348.941 35.6567 333.745 45.0297 324.373L239.373 130.03C248.745 120.657 263.941 120.657 273.314 130.029Z" fill="white"/>
</mask>
<g mask="url(#mask0_0_861)">
<path fill-rule="evenodd" clip-rule="evenodd" d="M0 0H512V512H0V0Z" fill="#212529"/>
</g>
</svg>
