<svg width="80" height="80" viewBox="0 0 80 80" fill="none" xmlns="http://www.w3.org/2000/svg">
<path fill-rule="evenodd" clip-rule="evenodd" d="M46 6H50C51.1046 6 52 6.89543 52 8V12H66C67.1046 12 68 12.8954 68 14V78C68 79.1046 67.1046 80 66 80H14C12.8954 80 12 79.1046 12 78V14C12 12.8954 12.8954 12 14 12H28V8C28 6.89543 28.8954 6 30 6H34C34 2.68629 36.6863 0 40 0C43.3137 0 46 2.68629 46 6ZM18 74V18H62V74H18ZM24 28V24H56V28H24ZM24 36V32H56V36H24ZM56 44V40H24V44H56ZM24 52V48H56V52H24ZM56 60V56H24V60H56ZM24 68V64H56V68H24Z" fill="#231F20"/>
</svg>
