<svg width="80" height="80" viewBox="0 0 80 80" fill="none" xmlns="http://www.w3.org/2000/svg">
<path d="M56.5827 15.9291C56.5827 15.3511 56.1082 14.8415 55.5276 14.8415H40.8616C40.281 14.8415 39.8064 15.3449 39.8064 15.9291C39.8064 16.5071 40.281 17.0168 40.8616 17.0168H55.5276C56.1082 17.0168 56.5827 16.5071 56.5827 15.9291ZM56.5827 26.7868C56.5827 26.2088 56.1082 25.6992 55.5276 25.6992H17.6982C17.1176 25.6992 16.6431 26.2026 16.6431 26.7868C16.6431 27.371 17.1176 27.8745 17.6982 27.8745H55.5276C56.1082 27.8745 56.5827 27.371 56.5827 26.7868ZM56.5827 33.3064C56.5827 32.7284 56.1082 32.2188 55.5276 32.2188H17.6982C17.1176 32.2188 16.6431 32.7222 16.6431 33.3064C16.6431 33.8844 17.1176 34.394 17.6982 34.394H55.5276C56.1082 34.3878 56.5827 33.8844 56.5827 33.3064ZM56.5827 39.8198C56.5827 39.2418 56.1082 38.7321 55.5276 38.7321H17.6982C17.1176 38.7321 16.6431 39.2355 16.6431 39.8198C16.6431 40.3978 17.1176 40.9074 17.6982 40.9074H55.5276C56.1082 40.9074 56.5827 40.3978 56.5827 39.8198ZM56.5827 46.3331C56.5827 45.7551 56.1082 45.2455 55.5276 45.2455H17.6982C17.1176 45.2455 16.6431 45.7489 16.6431 46.3331C16.6431 46.9111 17.1176 47.4208 17.6982 47.4208H55.5276C56.1082 47.4208 56.5827 46.9173 56.5827 46.3331ZM56.5827 53.0329C56.5827 52.4549 56.1082 52.1255 55.5276 52.1255H17.6982C17.1176 52.1255 16.6431 52.4487 16.6431 53.0329C16.6431 53.6109 17.1176 53.9403 17.6982 53.9403H55.5276C56.1082 53.9341 56.5827 53.6109 56.5827 53.0329ZM56.5827 59.7265C56.5827 59.1485 56.1082 58.6389 55.5276 58.6389H17.6982C17.1176 58.6389 16.6431 59.1423 16.6431 59.7265C16.6431 60.3108 17.1176 60.8142 17.6982 60.8142H55.5276C56.1082 60.8142 56.5827 60.3108 56.5827 59.7265ZM36.7284 66.2399C36.7284 65.6619 36.2539 65.1523 35.6733 65.1523H17.6982C17.1176 65.1523 16.6431 65.6557 16.6431 66.2399C16.6431 66.8241 17.1176 67.3275 17.6982 67.3275H35.6733C36.2601 67.3275 36.7284 66.8241 36.7284 66.2399ZM62.0021 78.9124C62.0021 79.5152 61.5151 80 60.9095 80H11.0926C10.4932 80 10 79.5152 10 78.9124V8.68863C10 8.08577 10.487 7.60099 11.0926 7.60099H60.9095C61.5151 7.60099 62.0021 8.08577 62.0021 8.68863V78.9124ZM70 1.08763V71.3611C70 71.964 69.8252 72.3928 69.2258 72.3928H65.9979V5.12741C65.9979 4.53076 65.7045 3.98384 65.0989 3.98384H17.9979V1.08763C17.9979 0.490988 18.7034 0 19.3028 0H69.2196C69.8252 0 70 0.490988 70 1.08763Z" fill="black"/>
</svg>
