<svg width="80" height="80" viewBox="0 0 80 80" fill="none" xmlns="http://www.w3.org/2000/svg">
<path d="M54.0009 15.5281C54.0009 14.9451 53.5255 14.4787 52.9467 14.4787H41.9637C41.378 14.4787 40.9095 14.952 40.9095 15.5281V26.4609C40.9095 27.0439 41.3849 27.5103 41.9637 27.5103H52.9467C53.5324 27.5103 54.0009 27.037 54.0009 26.4609V15.5281ZM54.0009 38.3333C54.0009 37.7503 53.5255 37.2839 52.9467 37.2839H41.9637C41.378 37.2839 40.9095 37.7572 40.9095 38.3333V49.2661C40.9095 49.8491 41.3849 50.3155 41.9637 50.3155H52.9467C53.5324 50.3155 54.0009 49.8422 54.0009 49.2661V38.3333ZM54.0009 60.7819C54.0009 60.1989 53.5255 59.7325 52.9467 59.7325H41.9637C41.378 59.7325 40.9095 60.2058 40.9095 60.7819V71.7147C40.9095 72.2977 41.3849 72.7641 41.9637 72.7641H52.9467C53.5324 72.7641 54.0009 72.2908 54.0009 71.7147V60.7819ZM37.2784 15.9259C37.2784 15.3429 36.8029 14.8422 36.2242 14.8422H17.5379C16.9522 14.8422 16.4837 15.3498 16.4837 15.9259C16.4837 16.5089 16.9591 17.0096 17.5379 17.0096H36.2242C36.8029 17.0165 37.2784 16.5089 37.2784 15.9259ZM37.2784 20.9945C37.2784 20.4115 36.8029 19.9108 36.2242 19.9108H17.5379C16.9522 19.9108 16.4837 20.4184 16.4837 20.9945C16.4837 21.5775 16.9591 22.0782 17.5379 22.0782H36.2242C36.8029 22.0782 37.2784 21.5775 37.2784 20.9945ZM37.2784 26.4266C37.2784 25.8436 36.8029 25.3429 36.2242 25.3429H17.5379C16.9522 25.3429 16.4837 25.8505 16.4837 26.4266C16.4837 27.0027 16.9591 27.5103 17.5379 27.5103H36.2242C36.8029 27.5103 37.2784 27.0027 37.2784 26.4266ZM37.2784 38.7311C37.2784 38.1481 36.8029 37.6475 36.2242 37.6475H17.5379C16.9522 37.6475 16.4837 38.155 16.4837 38.7311C16.4837 39.3141 16.9591 39.8148 17.5379 39.8148H36.2242C36.8029 39.8217 37.2784 39.3141 37.2784 38.7311ZM37.2784 43.7997C37.2784 43.2167 36.8029 42.716 36.2242 42.716H17.5379C16.9522 42.716 16.4837 43.2236 16.4837 43.7997C16.4837 44.3827 16.9591 44.8834 17.5379 44.8834H36.2242C36.8029 44.8903 37.2784 44.3827 37.2784 43.7997ZM37.2784 49.2318C37.2784 48.6488 36.8029 48.1481 36.2242 48.1481H17.5379C16.9522 48.1481 16.4837 48.6557 16.4837 49.2318C16.4837 49.8148 16.9591 50.3155 17.5379 50.3155H36.2242C36.8029 50.3155 37.2784 49.808 37.2784 49.2318ZM37.2784 60.8162C37.2784 60.2332 36.8029 59.7325 36.2242 59.7325H17.5379C16.9522 59.7325 16.4837 60.2401 16.4837 60.8162C16.4837 61.3992 16.9591 61.8999 17.5379 61.8999H36.2242C36.8029 61.8999 37.2784 61.3923 37.2784 60.8162ZM37.2784 66.2414C37.2784 65.6584 36.8029 65.1577 36.2242 65.1577H17.5379C16.9522 65.1577 16.4837 65.6653 16.4837 66.2414C16.4837 66.8244 16.9591 67.3251 17.5379 67.3251H36.2242C36.8029 67.332 37.2784 66.8244 37.2784 66.2414ZM37.2784 71.6735C37.2784 71.0905 36.8029 70.5899 36.2242 70.5899H17.5379C16.9522 70.5899 16.4837 71.0974 16.4837 71.6735C16.4837 72.2496 16.9591 72.7572 17.5379 72.7572H36.2242C36.8029 72.7572 37.2784 72.2565 37.2784 71.6735ZM62.0005 78.9163C62.0005 79.513 61.5113 80 60.9118 80H11.0887C10.4892 80 10 79.513 10 78.9163V8.68998C10 8.09328 10.4892 7.60631 11.0887 7.60631H60.9118C61.5113 7.60631 62.0005 8.09328 62.0005 8.68998V78.9163ZM43.0937 70.5899H51.8236V61.8999H43.0937V70.5899ZM43.0937 25.3361H51.8236V16.6529H43.0937V25.3361ZM43.0937 48.1481H51.8236V39.4582H43.0937V48.1481ZM70 1.12483V71.406C70 72.0027 69.6624 72.4005 69.0629 72.4005H65.9968V5.16461C65.9968 4.5679 65.542 3.97805 64.9357 3.97805H17.9995V1.12483C17.9995 0.52812 18.5439 0 19.1433 0H69.0629C69.6693 0 70 0.52812 70 1.12483Z" fill="black"/>
</svg>
