<svg width="80" height="80" viewBox="0 0 80 80" fill="none" xmlns="http://www.w3.org/2000/svg">
<g clip-path="url(#clip0_1144_147)">
<path fill-rule="evenodd" clip-rule="evenodd" d="M17.7772 6.74121C24.3552 2.34596 32.0888 0 40 0C50.6038 0.0157913 60.7688 4.23514 68.2668 11.7332C75.7649 19.2312 79.9842 29.3962 80 40C80 47.9112 77.6541 55.6448 73.2588 62.2228C68.8635 68.8008 62.6164 73.9277 55.3073 76.9552C47.9983 79.9827 39.9556 80.7748 32.1964 79.2314C24.4372 77.688 17.3098 73.8784 11.7157 68.2843C6.12164 62.6902 2.31202 55.5628 0.768607 47.8036C-0.774802 40.0444 0.0173304 32.0017 3.04484 24.6927C6.07234 17.3836 11.1992 11.1365 17.7772 6.74121ZM20.8571 68.6713C26.5236 72.457 33.1853 74.4776 40 74.4776V74.4597C49.1393 74.4597 57.9043 70.8291 64.3667 64.3667C70.8291 57.9042 74.4597 49.1393 74.4597 40C74.4562 33.1853 72.4321 26.5246 68.6435 20.8601C64.8549 15.1956 59.4718 10.7816 53.1748 8.17616C46.8778 5.57073 39.9496 4.89087 33.2663 6.22253C26.5829 7.55418 20.4445 10.8376 15.627 15.6576C10.8095 20.4775 7.52933 26.6177 6.20115 33.3017C4.87296 39.9858 5.55642 46.9136 8.16512 53.2092C10.7738 59.5048 15.1906 64.8857 20.8571 68.6713ZM37.9641 50.2865L37.7552 50.0955L29.4209 41.791C29.1307 41.4914 28.9031 41.137 28.7514 40.7485C28.5997 40.36 28.5269 39.9452 28.5373 39.5283C28.5425 38.9082 28.7298 38.3032 29.076 37.7887C29.4221 37.2741 29.9119 36.8726 30.4843 36.6341C31.0568 36.3956 31.6867 36.3305 32.2958 36.4471C32.905 36.5636 33.4664 36.8565 33.9104 37.2895L36.8537 40.2387V21.0268C36.8537 20.1876 37.1871 19.3828 37.7804 18.7894C38.3738 18.196 39.1787 17.8626 40.0179 17.8626C40.8571 17.8626 41.6619 18.196 42.2553 18.7894C42.8487 19.3828 43.182 20.1876 43.182 21.0268V40.191L46.1253 37.2477C46.7255 36.6911 47.5181 36.3888 48.3364 36.4043C49.1548 36.4197 49.9354 36.7517 50.5142 37.3305C51.093 37.9093 51.4249 38.6898 51.4404 39.5082C51.4558 40.3266 51.1535 41.1191 50.597 41.7193L42.2388 50.0775C42.0862 50.2258 41.9203 50.3597 41.7432 50.4775C41.6328 50.5516 41.517 50.6174 41.397 50.6746L41.188 50.7701C41.0651 50.819 40.9396 50.8609 40.8119 50.8955L40.5611 50.9492C40.3765 50.9871 40.1884 51.0051 40 51.0029H39.8388C39.6922 50.9979 39.5463 50.9799 39.4029 50.9492H39.2119L38.9611 50.8537L38.8537 50.8178L38.4179 50.6328L38.3343 50.5552C38.2507 50.4994 38.1671 50.4397 38.0835 50.376L37.9641 50.2865ZM56.9783 39.681C57.5704 39.0878 58.3737 38.7538 59.2119 38.7522L59.182 38.782C60.0207 38.7836 60.8246 39.1175 61.4177 39.7105C62.0108 40.3036 62.3446 41.1075 62.3462 41.9462V52.585C62.3462 55.1184 61.3398 57.5481 59.5484 59.3395C57.757 61.1308 55.3274 62.1372 52.794 62.1372H27.1761C24.6427 62.1372 22.213 61.1308 20.4216 59.3395C18.6302 57.5481 17.6238 55.1184 17.6238 52.585V41.791C17.6238 40.9518 17.9572 40.147 18.5506 39.5536C19.144 38.9602 19.9488 38.6268 20.788 38.6268C21.6272 38.6268 22.432 38.9602 23.0254 39.5536C23.6188 40.147 23.9522 40.9518 23.9522 41.791V52.5372C23.9522 53.3976 24.2935 54.2227 24.9013 54.8316C25.5091 55.4405 26.3337 55.7834 27.194 55.785H52.8059C53.6668 55.7834 54.492 55.4407 55.1007 54.832C55.7094 54.2233 56.0521 53.3981 56.0537 52.5372V41.9163C56.0537 41.0782 56.3862 40.2743 56.9783 39.681Z" fill="#231F20"/>
</g>
<defs>
<clipPath id="clip0_1144_147">
<rect width="80" height="80" fill="white"/>
</clipPath>
</defs>
</svg>
