<svg width="512" height="512" viewBox="0 0 512 512" fill="none" xmlns="http://www.w3.org/2000/svg">
<path fill-rule="evenodd" clip-rule="evenodd" d="M263.383 389.548L496.811 156.217C517.078 135.958 517.078 102.993 496.722 82.6457L458.321 44.2607C438.054 23.9131 405.164 23.9131 384.808 44.2607L151.381 277.592L142.492 357.916C139.914 381.373 159.737 401.01 183.026 398.433L263.383 389.548ZM386.053 307.091L357.608 335.525C356.274 336.857 355.563 338.635 355.563 340.501V441.35H42.6676V128.583H257.339C259.294 128.583 261.072 127.872 262.406 126.54L290.851 98.1063C295.295 93.5748 292.095 85.9333 285.784 85.9333H42.6676C19.1115 85.9333 0 105.037 0 128.583V441.35C0 464.896 19.1115 484 42.6676 484H355.563C379.119 484 398.231 464.896 398.231 441.35V312.156C398.231 305.759 390.497 302.649 386.053 307.091ZM408.987 183.673L357.341 132.049L192.182 297.229L185.693 355.25L243.739 348.764L408.987 183.673ZM428.187 74.4711L466.588 112.856C470.232 116.499 470.232 122.364 466.677 126.095L439.21 153.551L387.564 101.927L415.031 74.4711C418.587 70.8281 424.543 70.8281 428.187 74.4711Z" fill="black"/>
<mask id="mask0_0_484" style="mask-type:alpha" maskUnits="userSpaceOnUse" x="0" y="29" width="512" height="455">
<path fill-rule="evenodd" clip-rule="evenodd" d="M263.383 389.548L496.811 156.217C517.078 135.958 517.078 102.993 496.722 82.6457L458.321 44.2607C438.054 23.9131 405.164 23.9131 384.808 44.2607L151.381 277.592L142.492 357.916C139.914 381.373 159.737 401.01 183.026 398.433L263.383 389.548ZM386.053 307.091L357.608 335.525C356.274 336.857 355.563 338.635 355.563 340.501V441.35H42.6676V128.583H257.339C259.294 128.583 261.072 127.872 262.406 126.54L290.851 98.1063C295.295 93.5748 292.095 85.9333 285.784 85.9333H42.6676C19.1115 85.9333 0 105.037 0 128.583V441.35C0 464.896 19.1115 484 42.6676 484H355.563C379.119 484 398.231 464.896 398.231 441.35V312.156C398.231 305.759 390.497 302.649 386.053 307.091ZM408.987 183.673L357.341 132.049L192.182 297.229L185.693 355.25L243.739 348.764L408.987 183.673ZM428.187 74.4711L466.588 112.856C470.232 116.499 470.232 122.364 466.677 126.095L439.21 153.551L387.564 101.927L415.031 74.4711C418.587 70.8281 424.543 70.8281 428.187 74.4711Z" fill="white"/>
</mask>
<g mask="url(#mask0_0_484)">
<path fill-rule="evenodd" clip-rule="evenodd" d="M0 0H512V512H0V0Z" fill="#212529"/>
</g>
</svg>
