<svg width="80" height="80" viewBox="0 0 80 80" fill="none" xmlns="http://www.w3.org/2000/svg">
<path d="M2.87095 53.4872C2.76711 53.4744 2.67115 53.4247 2.6003 53.3468C2.52944 53.2689 2.48833 53.1681 2.48434 53.0623C2.36519 49.4013 2.75791 45.7417 3.65086 42.1918C4.92559 36.9421 7.33309 32.0428 10.7006 27.8456C14.0681 23.6483 18.3122 20.2571 23.1284 17.9153C23.595 17.686 24.0749 17.4702 24.5748 17.2409C24.6441 17.2012 24.7226 17.1809 24.8023 17.1822C24.8819 17.1835 24.9598 17.2063 25.0278 17.2482C25.0957 17.2902 25.1514 17.3498 25.189 17.4208C25.2265 17.4919 25.2447 17.5718 25.2414 17.6523V34.1603C25.2414 35.5578 25.7897 36.8981 26.7658 37.8868C27.7419 38.8756 29.0661 39.432 30.4474 39.4338C30.5276 39.4338 30.6071 39.4177 30.6811 39.3864C30.7551 39.3551 30.8223 39.3093 30.8787 39.2516C30.9351 39.1939 30.9797 39.1255 31.0098 39.0503C31.0398 38.975 31.0549 38.8945 31.054 38.8134C31.054 28.0642 31.114 23.418 31.1007 12.2373C31.0888 12.022 31.1308 11.8071 31.2229 11.6126C31.3149 11.4181 31.454 11.2503 31.6273 11.1246C34.087 9.58035 45.5588 9.62756 48.4851 11.2595C48.6065 11.3557 48.7032 11.4801 48.767 11.6221C48.8309 11.7641 48.8599 11.9196 48.8517 12.0754C48.8517 19.028 48.8517 38.6717 48.8517 38.6717C48.8517 38.8685 48.929 39.0571 49.0665 39.1963C49.204 39.3354 49.3905 39.4135 49.585 39.4135C50.9345 39.4135 52.2288 38.8716 53.1837 37.9069C54.1385 36.9422 54.6759 35.6335 54.6776 34.2682V17.3219C54.9909 17.4635 55.2442 17.5579 55.4842 17.6793C57.1891 18.5175 58.8291 19.4845 60.3902 20.5722C62.7603 22.2326 64.9323 24.1651 66.8627 26.3312C71.9789 31.9967 75.4081 39.0097 76.7548 46.5616C77.1471 48.7571 77.3699 50.9802 77.4214 53.2107C77.4192 53.3184 77.379 53.4217 77.3081 53.5021C77.2372 53.5825 77.1403 53.6346 77.0348 53.649C50.6648 57.6884 27.2812 57.1017 2.87095 53.4872ZM77.8213 56.6768C70.2556 57.8907 62.4433 59.408 40.1662 59.408C17.889 59.408 2.20437 56.5015 2.20437 56.5015L0.497926 56.3329C0.430445 56.3239 0.361801 56.3307 0.297398 56.3531C0.232995 56.3754 0.174589 56.4125 0.126776 56.4615C0.0789635 56.5105 0.0430481 56.5701 0.0218573 56.6356C0.000666518 56.701 -0.00522161 56.7705 0.00465523 56.8387C2.59099 66.4684 17.5157 71 39.9995 71C62.4833 71 77.8413 66.4549 79.9944 56.9668C80.0054 56.8973 80.0002 56.8261 79.9791 56.759C79.9581 56.6918 79.9219 56.6306 79.8733 56.5802C79.8248 56.5297 79.7652 56.4915 79.6994 56.4684C79.6336 56.4454 79.5635 56.4383 79.4945 56.4476L77.8213 56.6768Z" fill="#231F20"/>
</svg>
