<svg width="80" height="80" viewBox="0 0 80 80" fill="none" xmlns="http://www.w3.org/2000/svg">
<path d="M71.9368 32.5679C71.6191 32.428 71.27 32.3766 70.9258 32.419H68.5422C68.4801 30.8848 68.3124 29.357 68.0404 27.8463C67.0233 22.0863 64.4081 16.7356 60.4984 12.4154C58.0432 9.68039 55.0893 7.44779 51.7979 5.83941C51.6134 5.7426 51.4215 5.66812 51.178 5.56386V18.4552C51.178 19.4922 50.7698 20.4866 50.0432 21.2199C49.3167 21.9531 48.3312 22.3651 47.3037 22.3651C47.2304 22.366 47.1576 22.3523 47.0896 22.3247C47.0216 22.2971 46.9597 22.2561 46.9075 22.2041C46.8554 22.1522 46.8139 22.0902 46.7857 22.022C46.7574 21.9537 46.7428 21.8805 46.7428 21.8065V1.57953C46.7493 1.46021 46.7271 1.34107 46.6783 1.23219C46.6295 1.12331 46.5555 1.02787 46.4624 0.953958C44.2485 -0.2823 35.4889 -0.319538 33.6145 0.857142C33.4837 0.952679 33.3787 1.07975 33.3091 1.22675C33.2395 1.37375 33.2075 1.536 33.216 1.69869C33.216 10.2036 33.1717 13.741 33.216 21.9108C33.216 22.0352 33.167 22.1545 33.0798 22.2425C32.9926 22.3305 32.8744 22.3799 32.7511 22.3799C31.6981 22.3799 30.6883 21.9578 29.9437 21.2064C29.1991 20.455 28.7808 19.4359 28.7808 18.3733V5.81707C28.781 5.75971 28.7668 5.70323 28.7397 5.65281C28.7126 5.6024 28.6734 5.55967 28.6256 5.52853C28.5779 5.4974 28.5231 5.47887 28.4665 5.47463C28.4098 5.47039 28.3529 5.48059 28.3012 5.50428L27.1942 6.0107C23.5186 7.7931 20.2784 10.3729 17.7053 13.5656C15.1322 16.7584 13.2897 20.4853 12.3095 24.4801C11.6654 27.0672 11.3676 29.7297 11.424 32.3966H9.13631C8.83711 32.3578 8.53305 32.3936 8.25075 32.5009C7.77611 32.6802 7.39063 33.0411 7.17789 33.5053C6.96515 33.9696 6.94231 34.4997 7.11429 34.9808C7.64562 36.3512 11.7487 43.1729 40.0274 43.1729C52.0045 43.1729 61.0298 41.9813 66.8375 39.6354C71.2653 37.8406 72.5346 35.8373 72.8593 35.1074C72.8593 35.1074 72.8593 35.0404 72.8593 35.0106C73.0411 34.5613 73.0469 34.0591 72.8757 33.6056C72.7044 33.1521 72.3688 32.7812 71.9368 32.5679ZM67.1622 43.508C67.3246 45.7422 67.4058 49.8755 67.4058 51.1714C67.4058 67.0938 55.1556 80 40.0421 80C24.9287 80 12.6785 67.0863 12.6785 51.1863C12.6785 49.9053 12.7597 45.9731 12.9147 43.508C18.3534 45.4667 26.84 46.9264 40.0421 46.9264C51.8126 46.904 60.9265 45.7571 67.1622 43.5006V43.508Z" fill="#231F20"/>
</svg>
