<svg width="512" height="512" viewBox="0 0 512 512" fill="none" xmlns="http://www.w3.org/2000/svg">
<path fill-rule="evenodd" clip-rule="evenodd" d="M415.715 197.4L482.486 252.501C486.559 255.86 487.198 261.858 483.843 266.017L463.477 290.808C460.122 294.887 454.052 295.447 449.979 292.088L262.126 137.18C258.532 134.301 253.42 134.301 249.906 137.18L62.0536 292.088C57.9802 295.447 51.9102 294.887 48.5557 290.808L28.189 266.017C24.8345 261.938 25.3936 255.86 29.4669 252.501L231.616 85.7571C245.753 74.081 266.199 74.081 280.336 85.7571L351.819 144.697V86.6368C351.819 81.3585 356.132 77.04 361.404 77.04H406.13C411.402 77.04 415.715 81.3585 415.715 86.6368V197.4ZM415.715 415.806V301.205C415.715 298.326 414.437 295.607 412.28 293.767L262.126 169.969C258.532 167.09 253.42 167.09 249.906 169.969L99.7519 293.767C97.5155 295.607 96.2376 298.326 96.2376 301.205V415.806C96.2376 426.443 104.784 435 115.406 435H208.055C213.326 435 217.639 430.681 217.639 425.403V335.833C217.639 330.555 221.952 326.236 227.223 326.236H284.729C290.001 326.236 294.313 330.555 294.313 335.833V425.403C294.313 430.681 298.626 435 303.898 435H396.546C407.169 435 415.715 426.443 415.715 415.806Z" fill="black"/>
<mask id="mask0_0_743" style="mask-type:alpha" maskUnits="userSpaceOnUse" x="26" y="77" width="460" height="358">
<path fill-rule="evenodd" clip-rule="evenodd" d="M415.715 197.4L482.486 252.501C486.559 255.86 487.198 261.858 483.843 266.017L463.477 290.808C460.122 294.887 454.052 295.447 449.979 292.088L262.126 137.18C258.532 134.301 253.42 134.301 249.906 137.18L62.0536 292.088C57.9802 295.447 51.9102 294.887 48.5557 290.808L28.189 266.017C24.8345 261.938 25.3936 255.86 29.4669 252.501L231.616 85.7571C245.753 74.081 266.199 74.081 280.336 85.7571L351.819 144.697V86.6368C351.819 81.3585 356.132 77.04 361.404 77.04H406.13C411.402 77.04 415.715 81.3585 415.715 86.6368V197.4ZM415.715 415.806V301.205C415.715 298.326 414.437 295.607 412.28 293.767L262.126 169.969C258.532 167.09 253.42 167.09 249.906 169.969L99.7519 293.767C97.5155 295.607 96.2376 298.326 96.2376 301.205V415.806C96.2376 426.443 104.784 435 115.406 435H208.055C213.326 435 217.639 430.681 217.639 425.403V335.833C217.639 330.555 221.952 326.236 227.223 326.236H284.729C290.001 326.236 294.313 330.555 294.313 335.833V425.403C294.313 430.681 298.626 435 303.898 435H396.546C407.169 435 415.715 426.443 415.715 415.806Z" fill="white"/>
</mask>
<g mask="url(#mask0_0_743)">
<path fill-rule="evenodd" clip-rule="evenodd" d="M0 0H512V512H0V0Z" fill="#212529"/>
</g>
</svg>
