<svg width="80" height="80" viewBox="0 0 80 80" fill="none" xmlns="http://www.w3.org/2000/svg">
<g clip-path="url(#clip0_1144_257)">
<path d="M40 0C32.0888 0 24.3552 2.34596 17.7772 6.74121C11.1992 11.1365 6.07234 17.3836 3.04484 24.6927C0.0173309 32.0017 -0.774802 40.0444 0.768607 47.8036C2.31202 55.5628 6.12164 62.6902 11.7157 68.2843C17.3098 73.8784 24.4372 77.688 32.1964 79.2314C39.9556 80.7748 47.9983 79.9827 55.3073 76.9552C62.6164 73.9277 68.8635 68.8008 73.2588 62.2228C77.654 55.6448 80 47.9112 80 40C79.9984 29.3918 75.7837 19.2186 68.2825 11.7175C60.7814 4.21635 50.6082 0.00157123 40 0ZM44.8356 65.1378H35.2237V30.1748H44.8356V65.1378ZM39.9645 25.4341C39.2566 25.4578 38.5512 25.3389 37.8902 25.0843C37.2293 24.8298 36.6263 24.4449 36.1171 23.9526C35.608 23.4602 35.2031 22.8704 34.9266 22.2184C34.6501 21.5663 34.5076 20.8653 34.5076 20.157C34.5076 19.4488 34.6501 18.7477 34.9266 18.0957C35.2031 17.4436 35.608 16.8539 36.1171 16.3615C36.6263 15.8691 37.2293 15.4842 37.8902 15.2297C38.5512 14.9752 39.2566 14.8563 39.9645 14.88C43.1052 14.88 45.5111 17.1556 45.5111 20.16C45.5111 23.1644 43.1052 25.4163 39.9645 25.4163V25.4341Z" fill="#231F20"/>
</g>
<defs>
<clipPath id="clip0_1144_257">
<rect width="80" height="80" fill="white"/>
</clipPath>
</defs>
</svg>
